<svg width="116" height="160" viewBox="0 0 116 160" fill="none" xmlns="http://www.w3.org/2000/svg">
<path d="M3.40395 83.1489C1.36313 89.0417 0.268066 95.334 0.268066 101.876C0.268066 133.537 25.8529 159.205 57.4109 159.205C88.9689 159.205 114.554 133.537 114.554 101.876C114.554 95.334 113.459 88.9917 111.418 83.1489H3.40395Z" fill="#F3E9D9"/>
<path d="M57.411 47.1927C60.8473 47.1927 63.633 44.3979 63.633 40.9503C63.633 37.5028 60.8473 34.708 57.411 34.708C53.9747 34.708 51.189 37.5028 51.189 40.9503C51.189 44.3979 53.9747 47.1927 57.411 47.1927Z" fill="#98CA4E"/>
<path d="M39.4903 97.6306C43.4724 97.6306 46.7078 100.877 46.7078 104.872C46.7078 108.867 43.4724 112.113 39.4903 112.113C35.5082 112.113 32.2728 108.867 32.2728 104.872C32.2728 100.877 35.5082 97.6306 39.4903 97.6306ZM39.4903 95.6331C34.4131 95.6331 30.2817 99.778 30.2817 104.872C30.2817 109.965 34.4131 114.11 39.4903 114.11C44.5675 114.11 48.6989 109.965 48.6989 104.872C48.6989 99.778 44.5675 95.6331 39.4903 95.6331Z" fill="black"/>
<path d="M42.2781 103.673C40.8844 103.673 39.7893 102.575 39.7893 101.176C39.7893 100.577 39.9884 100.078 40.3368 99.6282C40.0382 99.5783 39.7893 99.5283 39.4906 99.5283C36.6036 99.5283 34.2642 101.875 34.2642 104.772C34.2642 107.668 36.6036 110.015 39.4906 110.015C42.3777 110.015 44.7171 107.668 44.7171 104.772C44.7171 104.023 44.5678 103.324 44.2691 102.674C43.7714 103.274 43.0745 103.673 42.2781 103.673Z" fill="black"/>
<path d="M87.5742 106.62C87.375 106.071 86.6782 105.771 86.0809 105.971C86.0311 105.971 81.402 107.319 76.275 106.92C79.4607 106.22 81.4517 104.772 81.601 104.672C82.0988 104.273 82.1486 103.624 81.7504 103.174C81.3024 102.725 80.5557 102.675 80.058 103.024C80.0082 103.074 75.2795 106.57 68.6095 104.373C68.51 104.323 68.4602 104.323 68.3606 104.323C67.9126 104.223 67.4149 104.373 67.1162 104.722C66.718 105.222 66.8176 105.871 67.3651 106.22C70.7997 108.468 74.8315 109.117 78.3656 109.117C82.8952 109.117 86.5289 108.068 86.8275 107.968C87.4248 107.768 87.7733 107.169 87.5742 106.62Z" fill="black"/>
<path d="M33.3682 128.593C33.3682 128.593 40.3368 143.075 56.2651 143.075C72.1934 143.075 79.4109 128.343 79.4109 128.343" stroke="black" stroke-width="2" stroke-miterlimit="10" stroke-linecap="round" stroke-linejoin="round"/>
<path d="M45.8125 92.6367C45.8125 92.6367 42.8259 91.6379 39.3416 91.6379C39.3416 91.6379 32.6218 90.8888 27.1465 97.3808" stroke="black" stroke-width="2" stroke-miterlimit="10" stroke-linecap="round" stroke-linejoin="round"/>
<path d="M80.4056 91.8875C80.4056 91.8875 76.4236 91.3882 73.9348 92.3869C71.446 93.3857 67.4639 97.3808 67.4639 97.3808" stroke="black" stroke-width="2" stroke-miterlimit="10" stroke-linecap="round" stroke-linejoin="round"/>
<path d="M65.9725 45.1951C65.9227 45.245 65.6738 45.2949 65.1761 45.3449C65.1263 45.6445 65.0267 45.8942 64.977 46.1439C68.9591 47.9916 72.7918 50.5385 76.2263 53.385C79.7604 56.2815 82.8963 59.4276 85.5842 62.324C90.96 68.1669 94.3448 73.0608 94.3946 73.1108C94.9421 73.9098 94.743 75.0085 93.9466 75.5578C93.648 75.7575 93.2995 75.8574 92.9511 75.8574C92.4036 75.8574 91.856 75.6077 91.5076 75.1083L91.4578 75.0085C91.408 74.9086 91.3085 74.8087 91.2089 74.6589C91.0098 74.3593 90.6614 73.9098 90.2134 73.3105C89.3672 72.1619 88.1228 70.5639 86.53 68.7162C83.3941 64.9708 79.0138 60.2266 73.9864 56.0817C70.6514 53.3351 67.0178 50.8881 63.3344 49.2401C63.2846 49.1902 63.185 49.1402 63.1353 49.1402C61.6917 50.6883 59.6509 51.6871 57.3612 51.6871C55.0716 51.6871 53.0307 50.7383 51.5872 49.1402C51.5374 49.1902 51.4379 49.2401 51.3881 49.2401C47.7545 50.8881 44.2204 53.2851 40.8854 55.9818C37.6002 58.6785 34.5638 61.6748 31.9755 64.4714C26.7988 70.0645 23.414 74.9086 23.2647 75.1583C22.9162 75.6577 22.3687 75.9074 21.8212 75.9074C21.4727 75.9074 21.1243 75.8075 20.8256 75.6077C20.0292 75.0584 19.8301 73.9597 20.3777 73.1607C20.3777 73.1108 22.3189 70.3642 25.5544 66.5189C28.7898 62.6736 33.3194 57.7297 38.5459 53.4349C42.0302 50.5884 45.8132 47.9916 49.7953 46.1938C49.6957 45.9441 49.646 45.6445 49.5464 45.3449C49.2478 45.2949 49.0486 45.2949 49.0486 45.245C28.8894 48.2413 12.1646 61.8247 4.64844 80.2021H20.8754C32.4732 76.6564 44.7181 74.7088 57.4608 74.7088C70.2034 74.7088 82.4981 76.6564 94.0462 80.2021H110.273C102.906 61.7747 86.1816 48.1914 65.9725 45.1951Z" fill="#98CA4E"/>
<path d="M44.9658 30.2133C48.1515 26.9673 52.5318 24.9697 57.4098 24.9697C62.2879 24.9697 66.6682 26.9673 69.8538 30.2133" stroke="#98CA4E" stroke-width="2.5" stroke-miterlimit="10" stroke-linecap="round" stroke-linejoin="round"/>
<path d="M39.2412 20.1259C43.7708 15.2819 50.2417 12.2356 57.4094 12.2356C64.6269 12.2356 71.0978 15.3318 75.6772 20.2258" stroke="#98CA4E" stroke-width="2.5" stroke-miterlimit="10" stroke-linecap="round" stroke-linejoin="round"/>
<path d="M33.7168 10.2381C40.1379 4.94461 48.4007 1.74854 57.4102 1.74854C66.4196 1.74854 74.6327 4.94461 81.1036 10.2381" stroke="#98CA4E" stroke-width="2.5" stroke-miterlimit="10" stroke-linecap="round" stroke-linejoin="round"/>
</svg>
